<svg width="810" height="191" viewBox="0 0 810 191" fill="none" xmlns="http://www.w3.org/2000/svg">
<path d="M46.72 142.28C33.152 142.28 22.8693 138.568 15.872 131.144C8.96 123.72 5.504 113.693 5.504 101.064C5.504 92.0187 6.95467 84.2533 9.856 77.768C12.8427 71.1973 17.3653 66.1627 23.424 62.664C29.4827 59.08 37.2053 57.288 46.592 57.288C51.3707 57.288 55.7227 57.672 59.648 58.44C63.6587 59.1227 67.3707 60.0613 70.784 61.256V73.416C67.3707 72.0507 63.7013 71.0267 59.776 70.344C55.936 69.576 51.8827 69.192 47.616 69.192C37.376 69.192 30.1227 71.9227 25.856 77.384C21.6747 82.8453 19.584 90.7387 19.584 101.064C19.584 110.707 21.888 118.045 26.496 123.08C31.104 128.029 38.2293 130.504 47.872 130.504C51.7973 130.504 55.7227 130.205 59.648 129.608C63.6587 128.925 67.4133 127.901 70.912 126.536V138.824C67.4987 139.933 63.7867 140.787 59.776 141.384C55.8507 141.981 51.4987 142.28 46.72 142.28ZM84.439 141V54.728H98.391V86.216C101.036 84.0827 104.194 82.376 107.863 81.096C111.532 79.7307 115.671 79.048 120.279 79.048C127.959 79.048 133.634 80.8827 137.303 84.552C140.972 88.2213 142.807 93.9387 142.807 101.704V141H128.983V102.344C128.983 97.6507 127.959 94.3653 125.911 92.488C123.948 90.6107 120.492 89.672 115.543 89.672C112.471 89.672 109.356 90.3547 106.199 91.72C103.042 93 100.439 94.7067 98.391 96.84V141H84.439ZM175.508 142.28C171.668 142.28 168.084 141.597 164.756 140.232C161.513 138.867 158.911 136.819 156.948 134.088C154.985 131.272 154.004 127.816 154.004 123.72C154.004 117.917 155.967 113.267 159.892 109.768C163.903 106.184 170.047 104.392 178.324 104.392H197.78V101.704C197.78 98.8027 197.311 96.4987 196.372 94.792C195.519 93.0853 193.897 91.848 191.508 91.08C189.204 90.312 185.791 89.928 181.268 89.928C174.1 89.928 167.401 90.9947 161.172 93.128V82.76C163.903 81.6507 167.231 80.7547 171.156 80.072C175.081 79.3893 179.305 79.048 183.828 79.048C192.703 79.048 199.444 80.84 204.052 84.424C208.745 88.008 211.092 93.8533 211.092 101.96V141H199.188L198.292 134.856C195.817 137.245 192.745 139.08 189.076 140.36C185.492 141.64 180.969 142.28 175.508 142.28ZM179.22 132.296C183.401 132.296 187.028 131.613 190.1 130.248C193.257 128.797 195.817 126.877 197.78 124.488V113.864H178.58C174.484 113.864 171.497 114.675 169.62 116.296C167.828 117.832 166.932 120.221 166.932 123.464C166.932 126.621 167.999 128.883 170.132 130.248C172.265 131.613 175.295 132.296 179.22 132.296ZM226.564 141V80.328H239.364L240.132 87.368C243.033 85.4907 246.489 83.784 250.5 82.248C254.511 80.712 258.479 79.6453 262.404 79.048V89.672C260.015 90.0987 257.412 90.7387 254.596 91.592C251.865 92.36 249.263 93.256 246.788 94.28C244.313 95.2187 242.223 96.2 240.516 97.224V141H226.564ZM297.14 163.528C292.617 163.528 288.095 163.229 283.572 162.632C279.049 162.12 275.209 161.309 272.052 160.2V149.448C275.465 150.557 279.391 151.411 283.828 152.008C288.265 152.605 292.489 152.904 296.5 152.904C302.644 152.904 307.124 152.563 309.94 151.88C312.756 151.197 314.164 149.661 314.164 147.272C314.164 145.48 313.481 144.2 312.116 143.432C310.751 142.749 308.148 142.408 304.308 142.408H287.924C276.916 142.408 271.412 138.525 271.412 130.76C271.412 128.285 272.137 125.981 273.588 123.848C275.039 121.715 277.343 120.093 280.5 118.984C277.001 117.277 274.399 114.931 272.692 111.944C271.071 108.957 270.26 105.373 270.26 101.192C270.26 93.4267 272.564 87.7947 277.172 84.296C281.865 80.7973 288.863 79.048 298.164 79.048C300.127 79.048 302.175 79.2187 304.308 79.56C306.441 79.816 308.105 80.072 309.3 80.328H331.572L331.188 89.416H320.948C322.569 90.7813 323.764 92.488 324.532 94.536C325.3 96.584 325.684 98.8027 325.684 101.192C325.684 107.677 323.721 112.797 319.796 116.552C315.871 120.221 309.94 122.056 302.004 122.056C300.639 122.056 299.359 122.013 298.164 121.928C297.055 121.757 295.817 121.587 294.452 121.416C291.892 121.672 289.588 122.355 287.54 123.464C285.492 124.573 284.468 126.067 284.468 127.944C284.468 129.224 284.98 130.163 286.004 130.76C287.028 131.272 288.735 131.528 291.124 131.528H308.148C314.207 131.528 318.857 132.851 322.1 135.496C325.428 138.056 327.092 141.811 327.092 146.76C327.092 152.733 324.489 157 319.284 159.56C314.164 162.205 306.783 163.528 297.14 163.528ZM298.164 113.224C303.711 113.224 307.551 112.285 309.684 110.408C311.903 108.531 313.012 105.331 313.012 100.808C313.012 96.2853 311.903 93 309.684 90.952C307.551 88.904 303.711 87.88 298.164 87.88C292.959 87.88 289.161 88.8613 286.772 90.824C284.383 92.7867 283.188 96.1147 283.188 100.808C283.188 105.16 284.297 108.317 286.516 110.28C288.82 112.243 292.703 113.224 298.164 113.224ZM372.909 142.28C362.328 142.28 354.136 139.677 348.333 134.472C342.53 129.267 339.629 121.288 339.629 110.536C339.629 100.808 342.104 93.128 347.053 87.496C352.002 81.864 359.512 79.048 369.581 79.048C378.797 79.048 385.709 81.48 390.317 86.344C395.01 91.1227 397.357 97.3093 397.357 104.904V116.168H352.941C353.624 122.056 355.757 126.109 359.341 128.328C362.925 130.547 368.386 131.656 375.725 131.656C378.797 131.656 381.954 131.357 385.197 130.76C388.44 130.163 391.256 129.395 393.645 128.456V138.696C390.914 139.891 387.757 140.787 384.173 141.384C380.674 141.981 376.92 142.28 372.909 142.28ZM352.941 107.08H385.069V102.856C385.069 98.6747 383.917 95.432 381.613 93.128C379.309 90.7387 375.426 89.544 369.965 89.544C363.48 89.544 359 90.952 356.525 93.768C354.136 96.584 352.941 101.021 352.941 107.08ZM410.939 141V80.328H423.739L424.507 87.368C427.408 85.4907 430.864 83.784 434.875 82.248C438.886 80.712 442.854 79.6453 446.779 79.048V89.672C444.39 90.0987 441.787 90.7387 438.971 91.592C436.24 92.36 433.638 93.256 431.163 94.28C428.688 95.2187 426.598 96.2 424.891 97.224V141H410.939Z" fill="#1976D2"/>
<path d="M621.76 163.528C617.152 163.528 613.227 162.931 609.984 161.736V151.368C611.435 151.88 612.757 152.221 613.952 152.392C615.232 152.563 616.512 152.648 617.792 152.648C620.437 152.648 622.571 152.221 624.192 151.368C625.813 150.515 627.221 149.149 628.416 147.272C629.696 145.48 631.061 143.133 632.512 140.232L605.504 80.328H619.968L639.424 125.384L659.136 80.328H673.472L648.768 137.544C646.635 142.664 644.331 147.144 641.856 150.984C639.467 154.909 636.651 157.981 633.408 160.2C630.251 162.419 626.368 163.528 621.76 163.528ZM684.564 141V80.328H697.364L698.004 86.728C700.735 84.5947 703.977 82.8027 707.732 81.352C711.572 79.816 715.796 79.048 720.404 79.048C728.255 79.048 733.972 80.8827 737.556 84.552C741.14 88.2213 742.932 93.9387 742.932 101.704V141H729.108V102.344C729.108 97.6507 728.127 94.3653 726.164 92.488C724.287 90.6107 720.703 89.672 715.412 89.672C712.255 89.672 709.14 90.312 706.068 91.592C703.081 92.872 700.564 94.536 698.516 96.584V141H684.564ZM787.138 142.28C776.471 142.28 768.407 139.592 762.946 134.216C757.485 128.755 754.754 120.904 754.754 110.664C754.754 99.9973 757.741 92.0613 763.714 86.856C769.773 81.6507 777.837 79.048 787.906 79.048C792.087 79.048 795.586 79.3467 798.402 79.944C801.303 80.5413 804.077 81.48 806.722 82.76V93.128C802.285 90.9093 796.909 89.8 790.594 89.8C783.597 89.8 778.221 91.3787 774.466 94.536C770.711 97.608 768.834 102.984 768.834 110.664C768.834 117.917 770.498 123.251 773.826 126.664C777.154 129.992 782.658 131.656 790.338 131.656C796.397 131.656 801.901 130.504 806.85 128.2V138.824C804.034 139.933 801.005 140.787 797.762 141.384C794.605 141.981 791.063 142.28 787.138 142.28Z" fill="#1976D2"/>
<rect x="461" y="124" width="127" height="17" fill="#1976D2"/>
<rect x="461" y="43" width="127" height="17" fill="#1976D2"/>
<rect x="530" y="72" width="58" height="52" fill="#1976D2"/>
<rect x="461" y="60" width="57" height="52" fill="#1976D2"/>
</svg>
