<?xml version="1.0" encoding="UTF-8"?>
<!DOCTYPE svg PUBLIC "-//W3C//DTD SVG 1.1//EN" "http://www.w3.org/Graphics/SVG/1.1/DTD/svg11.dtd">
<svg xmlns="http://www.w3.org/2000/svg" version="1.1" width="200px" height="200px" style="shape-rendering:geometricPrecision; text-rendering:geometricPrecision; image-rendering:optimizeQuality; fill-rule:evenodd; clip-rule:evenodd" xmlns:xlink="http://www.w3.org/1999/xlink">
<g><path style="opacity:0.838" fill="#000000" d="M 81.5,11.5 C 90.5679,11.1187 99.5679,11.6187 108.5,13C 110.762,13.6419 112.929,14.4752 115,15.5C 115.667,17.1667 115.667,18.8333 115,20.5C 82.2306,13.8688 55.2306,23.5355 34,49.5C 22.3958,67.4205 17.7291,87.0872 20,108.5C 24.1007,158.268 51.1007,182.268 101,180.5C 141.353,180.462 167.02,161.128 178,122.5C 181.661,101.801 177.994,82.4681 167,64.5C 154.875,44.9342 138.542,29.9342 118,19.5C 116.925,16.4691 117.925,14.4691 121,13.5C 156.125,30.6249 177.791,58.2916 186,96.5C 188.865,140.94 169.365,170.44 127.5,185C 107.124,188.478 86.791,188.145 66.5,184C 40.4968,175.996 23.9968,158.83 17,132.5C 12.6512,113.253 11.9845,93.9196 15,74.5C 19.4233,55.8187 29.2566,40.652 44.5,29C 55.612,20.4425 67.9454,14.6092 81.5,11.5 Z"/></g>
<g><path style="opacity:0.701" fill="#000000" d="M 59.5,67.5 C 64.6991,68.2594 65.6991,70.7594 62.5,75C 57.3333,76.5 55.5,74.6667 57,69.5C 57.9947,68.9341 58.828,68.2674 59.5,67.5 Z"/></g>
<g><path style="opacity:0.706" fill="#000000" d="M 121.5,71.5 C 127.317,71.0295 128.984,73.1962 126.5,78C 121.262,78.5941 119.595,76.4274 121.5,71.5 Z"/></g>
<g><path style="opacity:0.838" fill="#000000" d="M 61.5,103.5 C 63.4672,103.261 65.3005,103.594 67,104.5C 65.2565,117.639 67.5898,129.973 74,141.5C 86.4504,155.271 99.4504,155.937 113,143.5C 118.505,132.143 120.671,120.143 119.5,107.5C 122.079,107.083 124.246,107.75 126,109.5C 128.07,122.547 126.07,134.88 120,146.5C 104.593,162.551 88.2596,163.551 71,149.5C 60.6853,135.657 57.5186,120.324 61.5,103.5 Z"/></g>
</svg>
